<svg width="1780" height="500" viewBox="0 0 1780 500" fill="none" xmlns="http://www.w3.org/2000/svg" role="img" aria-labelledby="title desc">
  <title id="title">LearnMate logo</title>
  <desc id="desc">A blue learning logo with a checklist, open book, friendly robot, play button, and the LearnMate wordmark.</desc>
  <defs>
    <linearGradient id="blueA" x1="128" y1="114" x2="435" y2="338" gradientUnits="userSpaceOnUse">
      <stop stop-color="#1f62f3"/>
      <stop offset="1" stop-color="#30b8ee"/>
    </linearGradient>
    <linearGradient id="blueB" x1="188" y1="220" x2="466" y2="474" gradientUnits="userSpaceOnUse">
      <stop stop-color="#9ef3ff"/>
      <stop offset=".62" stop-color="#2d8ff4"/>
      <stop offset="1" stop-color="#073fc4"/>
    </linearGradient>
    <linearGradient id="word" x1="652" y1="258" x2="1628" y2="258" gradientUnits="userSpaceOnUse">
      <stop stop-color="#063ba9"/>
      <stop offset=".55" stop-color="#0733a8"/>
      <stop offset="1" stop-color="#2ea8f6"/>
    </linearGradient>
    <filter id="softShadow" x="88" y="66" width="486" height="402" filterUnits="userSpaceOnUse" color-interpolation-filters="sRGB">
      <feDropShadow dx="0" dy="10" stdDeviation="14" flood-color="#1f62f3" flood-opacity=".14"/>
    </filter>
  </defs>

  <g filter="url(#softShadow)">
    <path d="M142 122C142 105.431 155.431 92 172 92H395C411.569 92 425 105.431 425 122V314H142V122Z" fill="url(#blueA)"/>
    <path d="M164 158C164 151.373 169.373 146 176 146H400C406.627 146 412 151.373 412 158V318H164V158Z" fill="white"/>
    <path d="M172 120C172 101 172 79 189 79C206 79 206 101 206 120V137" stroke="#083aa7" stroke-width="12" stroke-linecap="round"/>
    <path d="M246 120C246 101 246 79 263 79C280 79 280 101 280 120V137" stroke="#083aa7" stroke-width="12" stroke-linecap="round"/>
    <path d="M320 120C320 101 320 79 337 79C354 79 354 101 354 120V137" stroke="#083aa7" stroke-width="12" stroke-linecap="round"/>

    <rect x="190" y="174" width="40" height="40" rx="8" fill="#1d63ef"/>
    <path d="M201 193.5L210 202.5L223.5 185.5" stroke="white" stroke-width="5" stroke-linecap="round" stroke-linejoin="round"/>
    <rect x="248" y="181" width="91" height="8" rx="4" fill="#b2cff3"/>
    <rect x="248" y="201" width="58" height="8" rx="4" fill="#c8dcf5"/>

    <rect x="190" y="232" width="40" height="40" rx="8" fill="#1d63ef"/>
    <path d="M201 251.5L210 260.5L223.5 243.5" stroke="white" stroke-width="5" stroke-linecap="round" stroke-linejoin="round"/>
    <rect x="248" y="239" width="78" height="8" rx="4" fill="#b2cff3"/>
    <rect x="248" y="259" width="51" height="8" rx="4" fill="#c8dcf5"/>

    <rect x="190" y="290" width="40" height="40" rx="8" fill="#1d63ef"/>
    <path d="M201 309.5L210 318.5L223.5 301.5" stroke="white" stroke-width="5" stroke-linecap="round" stroke-linejoin="round"/>
    <rect x="248" y="297" width="77" height="8" rx="4" fill="#b2cff3"/>
    <rect x="248" y="317" width="51" height="8" rx="4" fill="#c8dcf5"/>

    <path d="M86 423H247C278 423 294 451 318 451H342C366 451 381 423 413 423H475L496 347C450 345 388 352 330 410C272 352 210 345 106 347L86 423Z" fill="#0b45c8"/>
    <path d="M112 333C199 335 270 343 330 405C390 343 461 335 548 333L522 378C441 376 384 390 343 438H316C275 390 218 376 137 378L112 333Z" fill="url(#blueB)"/>
    <path d="M118 367C199 369 257 382 314 426" stroke="white" stroke-width="8" stroke-linecap="round"/>
    <path d="M542 224C542 170 487 127 419 127C351 127 296 170 296 224C296 251 310 275 332 292L321 329L362 313C379 319 398 322 419 322C487 322 542 278 542 224Z" fill="white" stroke="#2d8ff4" stroke-width="8" stroke-linejoin="round"/>
    <path d="M362 183C393 187 444 185 476 190C493 193 505 209 504 226C502 253 480 275 453 278C420 282 386 282 353 276C326 271 307 247 310 220C313 195 335 180 362 183Z" fill="#073aa5"/>
    <rect x="352" y="211" width="19" height="38" rx="9.5" fill="#95edff"/>
    <rect x="424" y="211" width="19" height="38" rx="9.5" fill="#95edff"/>
    <path d="M375 257C384 269 406 274 421 257" stroke="#7decff" stroke-width="7" stroke-linecap="round"/>
    <circle cx="536" cy="140" r="13" fill="#2aa8ed"/>
    <path d="M536 153V182" stroke="#2aa8ed" stroke-width="8" stroke-linecap="round"/>
    <path d="M500 208C516 207 531 219 531 239" stroke="#2aa8ed" stroke-width="16" stroke-linecap="round"/>
    <path d="M304 208C288 207 273 219 273 239" stroke="#2f67ea" stroke-width="16" stroke-linecap="round"/>
    <circle cx="536" cy="365" r="61" fill="url(#blueA)"/>
    <path d="M518 335L560 365L518 395V335Z" fill="white" stroke="white" stroke-width="8" stroke-linejoin="round"/>
  </g>

  <text x="650" y="327" fill="url(#word)" font-family="Inter, Arial, Helvetica, sans-serif" font-weight="800" font-size="184" letter-spacing="-7">LearnMate</text>
</svg>
