<svg width="256" height="256" viewBox="0 0 256 256" fill="none" xmlns="http://www.w3.org/2000/svg" role="img" aria-labelledby="title desc">
  <title id="title">LearnMate robot icon</title>
  <desc id="desc">A friendly blue robot chat icon for LearnMate.</desc>
  <defs>
    <linearGradient id="shell" x1="44" y1="62" x2="214" y2="218" gradientUnits="userSpaceOnUse">
      <stop stop-color="#1f62f3"/>
      <stop offset="1" stop-color="#32b9ee"/>
    </linearGradient>
    <linearGradient id="face" x1="72" y1="92" x2="184" y2="156" gradientUnits="userSpaceOnUse">
      <stop stop-color="#073aa5"/>
      <stop offset="1" stop-color="#082f91"/>
    </linearGradient>
    <filter id="shadow" x="20" y="18" width="216" height="218" filterUnits="userSpaceOnUse" color-interpolation-filters="sRGB">
      <feDropShadow dx="0" dy="10" stdDeviation="12" flood-color="#1f62f3" flood-opacity=".18"/>
    </filter>
  </defs>

  <rect width="256" height="256" rx="56" fill="white"/>
  <g filter="url(#shadow)">
    <path d="M208 126C208 78.503 171.288 48 128 48C84.712 48 48 78.503 48 126C48 146.496 56.979 165.113 71.758 179.355L64 210L97.133 196.218C106.629 199.963 117.085 202 128 202C171.288 202 208 173.497 208 126Z" fill="white" stroke="url(#shell)" stroke-width="10" stroke-linejoin="round"/>
    <path d="M93.5 91.5C116.5 94.5 145.5 93.5 166.5 97C184.185 99.948 196.131 116.245 193.248 133.941C189.742 155.453 172.663 172.197 151.087 175.271C134.518 177.632 117.633 177.646 101.06 175.312C77.495 171.994 60.984 149.831 64.593 126.309C68.114 103.367 71.251 88.598 93.5 91.5Z" fill="url(#face)"/>
    <rect x="89" y="119" width="18" height="34" rx="9" fill="#95edff"/>
    <rect x="150" y="119" width="18" height="34" rx="9" fill="#95edff"/>
    <path d="M108 165C117.5 176 137.5 176.5 148 165" stroke="#7decff" stroke-width="8" stroke-linecap="round"/>
    <circle cx="128" cy="31" r="13" fill="#2aa8ed"/>
    <path d="M128 44V64" stroke="#2aa8ed" stroke-width="9" stroke-linecap="round"/>
    <path d="M52 119C37.5 119 28 129 28 144" stroke="#2f67ea" stroke-width="18" stroke-linecap="round"/>
    <path d="M204 119C218.5 119 228 129 228 144" stroke="#2aa8ed" stroke-width="18" stroke-linecap="round"/>
  </g>
</svg>
